<svg id="图层_1" data-name="图层 1" xmlns="http://www.w3.org/2000/svg" viewBox="0 0 280.87 74.24"><defs><style>.cls-1{fill:#a7c336;}.cls-2{fill:none;}.cls-3{fill:#fff;}</style></defs><title>makerbean_logo</title><path class="cls-1" d="M12.11,34.28a.42.42,0,0,0-.36.41v.25c.47-.29,1-.57,1.46-.84Z" transform="translate(-5.29 -4.66)"/><path class="cls-1" d="M9.9,36.27c-2.78,2.23-4.61,5.07-4.61,8.21H7.15c0-2.36,1.32-4.54,3.39-6.36a2.26,2.26,0,0,1-.64-1.59Z" transform="translate(-5.29 -4.66)"/><path class="cls-1" d="M11.75,34.69a.42.42,0,0,1,.36-.41l1.1-.18A23.48,23.48,0,0,1,16,32.87a2.21,2.21,0,0,0,.18-.34v0a2.29,2.29,0,0,0-.25-2.25L14.55,28.4a.41.41,0,0,1,0-.55l1.3-1.3a.41.41,0,0,1,.3-.12.42.42,0,0,1,.25.08l1.85,1.35A2.35,2.35,0,0,0,22,26.34l.35-2.26a.43.43,0,0,1,.42-.36h1.84a.43.43,0,0,1,.42.36l.35,2.26a2.29,2.29,0,0,0,1.42,1.77A2.32,2.32,0,0,0,29,27.86l1.85-1.35a.4.4,0,0,1,.25-.08.42.42,0,0,1,.3.12l1.3,1.3a.43.43,0,0,1,0,.55L31.4,30.25A2.29,2.29,0,0,0,31,32a41.62,41.62,0,0,1,6.21,1.81,2.29,2.29,0,0,0-1.74-1.34l-2.26-.35a.48.48,0,0,1-.35-.3.45.45,0,0,1,0-.44l1.35-1.86A2.26,2.26,0,0,0,34,26.54l-1.3-1.3A2.27,2.27,0,0,0,29.77,25l-1.86,1.35a.43.43,0,0,1-.24.08.58.58,0,0,1-.19,0h0a.42.42,0,0,1-.28-.34l-.36-2.26a2.27,2.27,0,0,0-2.25-1.93H22.73a2.26,2.26,0,0,0-2.25,1.93l-.36,2.27a.46.46,0,0,1-.3.34.58.58,0,0,1-.19,0,.48.48,0,0,1-.25-.08L17.53,25a2.24,2.24,0,0,0-1.34-.44,2.29,2.29,0,0,0-1.62.67l-1.29,1.3a2.26,2.26,0,0,0-.23,2.95l1.35,1.86a.45.45,0,0,1,0,.45.47.47,0,0,1-.34.29l-2.26.35A2.27,2.27,0,0,0,9.9,34.69v1.58a21.26,21.26,0,0,1,1.85-1.33Z" transform="translate(-5.29 -4.66)"/><path class="cls-1" d="M35.54,36.53a.42.42,0,0,1-.35.42l-2.27.35a2.3,2.3,0,0,0-1.76,1.4v0A2.29,2.29,0,0,0,31.4,41l1.35,1.85a.42.42,0,0,1,0,.55l-1.3,1.3a.43.43,0,0,1-.3.13.42.42,0,0,1-.25-.09L29,43.36a2.3,2.3,0,0,0-2.26-.24,2.27,2.27,0,0,0-1.41,1.76L25,47.15a.43.43,0,0,1-.42.36H22.73a.43.43,0,0,1-.42-.36L22,44.88a2.31,2.31,0,0,0-1.42-1.77,2.38,2.38,0,0,0-.91-.18,2.28,2.28,0,0,0-1.34.43l-1.85,1.35a.45.45,0,0,1-.25.09.42.42,0,0,1-.3-.13l-1.3-1.3a.41.41,0,0,1,0-.55L15.9,41a2.36,2.36,0,0,0-1.52-3.67L12.11,37h0a18.4,18.4,0,0,0-1.54,1.18,2.32,2.32,0,0,0,1.29.66l2.26.36a.47.47,0,0,1,.35.3.46.46,0,0,1,0,.44l-1.35,1.85a2.27,2.27,0,0,0,.23,3L14.57,46a2.29,2.29,0,0,0,1.62.67,2.24,2.24,0,0,0,1.34-.44l1.85-1.35a.45.45,0,0,1,.25-.07.56.56,0,0,1,.21,0,.46.46,0,0,1,.28.34l.36,2.27a2.26,2.26,0,0,0,2.25,1.92h1.84a2.27,2.27,0,0,0,2.25-1.92l.36-2.27a.43.43,0,0,1,.29-.34.48.48,0,0,1,.2,0,.41.41,0,0,1,.24.07l1.86,1.35a2.24,2.24,0,0,0,1.34.44h0A2.26,2.26,0,0,0,32.72,46L34,44.69a2.27,2.27,0,0,0,.23-3L32.9,39.88a.47.47,0,0,1,0-.46.44.44,0,0,1,.34-.28l2.26-.36a2.26,2.26,0,0,0,1.93-2.25v-.65c-.61-.25-1.23-.48-1.86-.7Z" transform="translate(-5.29 -4.66)"/><path class="cls-1" d="M37.21,33.78A41.62,41.62,0,0,0,31,32a2.72,2.72,0,0,0,.15.54,2.3,2.3,0,0,0,1.77,1.41l2.27.36a.41.41,0,0,1,.35.41v.49c.63.22,1.25.45,1.86.7V34.69A2.32,2.32,0,0,0,37.21,33.78Z" transform="translate(-5.29 -4.66)"/><path class="cls-1" d="M11.75,36.53V34.94A21.26,21.26,0,0,0,9.9,36.27v.26a2.26,2.26,0,0,0,.64,1.59,18.4,18.4,0,0,1,1.54-1.18A.43.43,0,0,1,11.75,36.53Z" transform="translate(-5.29 -4.66)"/><path class="cls-1" d="M16,32.87a23.48,23.48,0,0,0-2.75,1.23l1.17-.18A2.27,2.27,0,0,0,16,32.87Z" transform="translate(-5.29 -4.66)"/><path class="cls-1" d="M23.65,39.74a4.13,4.13,0,1,1,4.12-4.13A4.13,4.13,0,0,1,23.65,39.74Zm0-6.4a2.27,2.27,0,1,0,2.27,2.27A2.27,2.27,0,0,0,23.65,33.34Z" transform="translate(-5.29 -4.66)"/><path class="cls-1" d="M85.53,39.05c0,.31,0,.62-.08.93A5.84,5.84,0,0,0,85.53,39.05Z" transform="translate(-5.29 -4.66)"/><path class="cls-1" d="M38,37.16c-7.66,3.06,5,8.71,15.72,1.78C53.75,38.94,45.55,34.15,38,37.16Z" transform="translate(-5.29 -4.66)"/><path class="cls-1" d="M75.28,17.27a15.7,15.7,0,0,0-5.35-.9,1,1,0,0,0,0,2,14.05,14.05,0,0,1,12.21,7.22,17.92,17.92,0,0,1,2,5.52c.65,0,1.29.13,1.94.23C85,25.16,81.76,19.66,75.28,17.27Z" transform="translate(-5.29 -4.66)"/><path class="cls-1" d="M20.86,55.35a18.36,18.36,0,0,1,.45-3.57,17.53,17.53,0,0,1,8.4-11.15,26,26,0,0,1,6.42-2.5,49.46,49.46,0,0,0,6.68-1.79A10,10,0,0,0,47.05,33c1.63-2.19,2.54-4.83,4.05-7.1a17.15,17.15,0,0,1,14-7.57,1,1,0,0,0,0-2,19.4,19.4,0,0,0-15.5,8.22C47.83,27,47,30.09,45,32.43c-1.64,2-4.2,2.59-6.59,3.11C33,36.72,27.83,38.54,24,42.67A19.33,19.33,0,0,0,18.89,55l.33.08C19.77,55.16,20.32,55.26,20.86,55.35Z" transform="translate(-5.29 -4.66)"/><path class="cls-1" d="M84.18,42A41.72,41.72,0,0,1,68,68.6a45.57,45.57,0,0,1-17.3,7.57,27.06,27.06,0,0,1-17.06-1.44A21.7,21.7,0,0,1,21,57.78c-.68-.1-1.37-.22-2.05-.37.66,9.3,7.67,17,16.31,20.06a30.13,30.13,0,0,0,17.22.34,47.17,47.17,0,0,0,16.88-7.7A43.7,43.7,0,0,0,85.84,44a35.38,35.38,0,0,0,.61-10.15c-.63-.12-1.27-.22-1.9-.29A33.94,33.94,0,0,1,84.18,42Z" transform="translate(-5.29 -4.66)"/><path class="cls-1" d="M66.54,13.67A.61.61,0,0,0,67,12.61C64.42,10.32,58.43,5.88,51,5.88c-9,0-9.6,3.37-9.76,4.63-.23,1.84,1.36,5.13,7.25,4.93C53.73,15.26,59.63,13,66.54,13.67Z" transform="translate(-5.29 -4.66)"/><path class="cls-1" d="M68.58,13.52a.54.54,0,0,1-.3-1c1.84-1.27,4.93-3.2,7.1-3.57,3.23-.55,4.6.72,4.84,2,.32,1.84-1.3,2.77-3.51,3.06C74.83,14.32,71.53,13.51,68.58,13.52Z" transform="translate(-5.29 -4.66)"/><path class="cls-1" d="M68.13,14.84c0-1-1.14-.95-1.19,0-.47,8.89-1,20.33-1,23s3.27,2.75,3.27.08S68.59,23.81,68.13,14.84Z" transform="translate(-5.29 -4.66)"/><path class="cls-1" d="M84.18,31.1a22.9,22.9,0,0,1,.37,2.43l1,.76.92-.47s-.15-1.57-.33-2.49A.93.93,0,0,0,85,30.58Z" transform="translate(-5.29 -4.66)"/><path class="cls-1" d="M86.12,31.33A.93.93,0,0,0,85,30.58l-.85.52,0,.21c.64.05,1.28.11,1.92.21Z" transform="translate(-5.29 -4.66)"/><path class="cls-1" d="M84.55,33.53l1,.76.92-.47s0-.14,0-.37c-.64-.11-1.28-.2-1.91-.25C84.53,33.31,84.54,33.42,84.55,33.53Z" transform="translate(-5.29 -4.66)"/><path class="cls-1" d="M18.88,55.1c-.46-.12-.91-.25-1.36-.4C12.36,53,7.15,49.18,7.15,44.48H5.29c0,5,4.58,9.66,11.65,12,.64.21,1.29.4,1.94.56C18.84,56.26,18.86,55.43,18.88,55.1Z" transform="translate(-5.29 -4.66)"/><path class="cls-1" d="M86.15,31.52c.12.63.21,1.46.27,1.93,6.84,1.23,13.64,5.69,13.64,11h1.86C101.92,38,94.05,32.73,86.15,31.52Z" transform="translate(-5.29 -4.66)"/><path class="cls-1" d="M66.05,37.54c1-.5,2-1,3.06-1.39a35.91,35.91,0,0,1,13.68-3c.57,0,1.15,0,1.72.08-.07-.73-.21-1.52-.28-1.89-.48,0-1,0-1.44,0a37.89,37.89,0,0,0-14.4,3.17c-1,.44-2.1.92-3.16,1.44a66,66,0,0,0-7.69,4.5l-.26.2q1,.47,2,.87A61.92,61.92,0,0,1,66.05,37.54Z" transform="translate(-5.29 -4.66)"/><path class="cls-1" d="M84.23,31.31c.07.37.21,1.16.28,1.89.63,0,1.27.14,1.91.25-.06-.47-.15-1.3-.27-1.93C85.51,31.42,84.87,31.36,84.23,31.31Z" transform="translate(-5.29 -4.66)"/><path class="cls-1" d="M18.91,57.41c.1,1,2.05.37,2.05.37s0-.14,0-.36c-.68-.11-1.36-.24-2-.4Z" transform="translate(-5.29 -4.66)"/><path class="cls-1" d="M20.86,55.35a.94.94,0,0,0-1.12-1.06l-.85.66a.85.85,0,0,0,0,.15c.65.17,1.31.32,2,.43C20.85,55.47,20.86,55.41,20.86,55.35Z" transform="translate(-5.29 -4.66)"/><path class="cls-1" d="M24.08,55.61a21,21,0,0,1-3.22-.26h0a21,21,0,0,0,3.22.26c12.52,0,24.67-9,27.69-11.41h0C48.75,46.6,36.6,55.61,24.08,55.61Z" transform="translate(-5.29 -4.66)"/><path class="cls-1" d="M51.77,44.2h0l.72-.59.76-.63h0l-.76.63Z" transform="translate(-5.29 -4.66)"/><path class="cls-1" d="M37.21,33.78a2.32,2.32,0,0,1,.19.91v1.19q.76.3,1.5.63a25.45,25.45,0,0,1,3.7-.34A52.41,52.41,0,0,0,37.21,33.78Z" transform="translate(-5.29 -4.66)"/><path class="cls-1" d="M57.28,40.57l-.22-.1-.24-.12c-1.63,1.11-2.85,2-3.57,2.63l.39.32Z" transform="translate(-5.29 -4.66)"/><path class="cls-1" d="M47,36.58a18.54,18.54,0,0,0-4.44-.41,25.45,25.45,0,0,0-3.7.34c-.74.12-1.48.27-2.19.44-4.79,1.17-10.5,3.25-14.25,9.35a18.67,18.67,0,0,0-2.6,8.87L19.22,55,18.89,55a.76.76,0,0,0,0,.15c.65.17,1.31.32,2,.43a20.93,20.93,0,0,0,3.56.32c12.43,0,24.46-8.79,27.72-11.37l-.36-.28L50.69,45l-1.37,1,1.37-1,1.08-.84.72-.59.76-.63c.72-.58,1.94-1.52,3.57-2.63A46.81,46.81,0,0,0,47,36.58ZM20.86,55.35a21,21,0,0,0,3.22.26A21,21,0,0,1,20.86,55.35Zm23.3-6c.56-.32,1.1-.65,1.62-1C45.26,48.7,44.72,49,44.16,49.35Zm4-2.49.86-.59Zm-1.6,1,1.17-.76Z" transform="translate(-5.29 -4.66)"/><path class="cls-1" d="M53.05,43.74l.59-.44L53.25,43l-.76.63-.72.59.36.28c.55-.43.85-.68.87-.7Z" transform="translate(-5.29 -4.66)"/><path class="cls-1" d="M18.86,55.77v0Z" transform="translate(-5.29 -4.66)"/><path class="cls-1" d="M100.06,44.48c0,6.3-9.45,11.37-17.27,11.37-.77,0-1.55,0-2.32-.11-.24.44-.48.88-.74,1.31-.09.15-.18.31-.28.46a28.52,28.52,0,0,0,3.34.19c8.85,0,19.13-5.77,19.13-13.22Z" transform="translate(-5.29 -4.66)"/><path class="cls-1" d="M59.41,41.49l-.12-.05-.68.45-3.5,2.62-.92.69-.59.49c-2.91,2.38-15.58,12-29.19,12a23.22,23.22,0,0,1-3.49-.28c-.68-.11-1.36-.24-2-.4l0,.39,1,.2c1.14,12.53,14.38,24,32.64,19.14A42.22,42.22,0,0,0,79.45,57.51c.1-.15.19-.31.28-.46.26-.43.5-.87.74-1.31a45.28,45.28,0,0,0,5.06-17.33C85.1,44,70.58,45.84,59.41,41.49Z" transform="translate(-5.29 -4.66)"/><path class="cls-1" d="M18.88,55.1c0,.1,0,.26,0,.45,0-.15,0-.3,0-.45Z" transform="translate(-5.29 -4.66)"/><path class="cls-1" d="M18.86,55.77c0,.37,0,.82,0,1.25h0c0-.21,0-.43,0-.64S18.86,56,18.86,55.77Z" transform="translate(-5.29 -4.66)"/><path class="cls-2" d="M182.59,38.79a1.77,1.77,0,0,0-.48,1.22v3.86h4.56V38.31h-2.91A1.6,1.6,0,0,0,182.59,38.79Z" transform="translate(-5.29 -4.66)"/><path class="cls-2" d="M189.62,52.17h3a1.74,1.74,0,0,0,1.17-.48,1.53,1.53,0,0,0,.48-1.21v-3.7h-4.61Z" transform="translate(-5.29 -4.66)"/><path class="cls-2" d="M192.58,38.31h-3v5.56h4.61V40a1.6,1.6,0,0,0-.48-1.22A1.79,1.79,0,0,0,192.58,38.31Z" transform="translate(-5.29 -4.66)"/><path class="cls-2" d="M182.11,50.48a1.67,1.67,0,0,0,.48,1.21,1.57,1.57,0,0,0,1.17.48h2.91V46.78h-4.56Z" transform="translate(-5.29 -4.66)"/><circle class="cls-1" cx="202.6" cy="37.26" r="2.18"/><path class="cls-2" d="M213.56,48.27a1.74,1.74,0,0,0-1.22-.48h-9a1.64,1.64,0,0,0-1.69,1.7v3.24H214V49.49A1.6,1.6,0,0,0,213.56,48.27Z" transform="translate(-5.29 -4.66)"/><ellipse class="cls-3" cx="266.29" cy="67.06" rx="1.25" ry="1.33"/><path class="cls-2" d="M277.82,45.22H256.54a2.45,2.45,0,0,0-1.78.74,2.35,2.35,0,0,0-.7,1.78v5.73a2.4,2.4,0,0,0,.7,1.74,2.45,2.45,0,0,0,1.78.74h21.28a2.47,2.47,0,0,0,1.79-.74,2.57,2.57,0,0,0,.65-1.74V47.74a2.52,2.52,0,0,0-.65-1.78A2.47,2.47,0,0,0,277.82,45.22Z" transform="translate(-5.29 -4.66)"/><path class="cls-2" d="M279.61,46a2.47,2.47,0,0,0-1.79-.74H256.54a2.45,2.45,0,0,0-1.78.74,2.35,2.35,0,0,0-.7,1.78v.19h26.2v-.19A2.52,2.52,0,0,0,279.61,46Z" transform="translate(-5.29 -4.66)"/><path class="cls-2" d="M254.06,53.47a2.4,2.4,0,0,0,.7,1.74,2.45,2.45,0,0,0,1.78.74h21.28a2.47,2.47,0,0,0,1.79-.74,2.57,2.57,0,0,0,.65-1.74v-.65h-26.2Z" transform="translate(-5.29 -4.66)"/><path class="cls-1" d="M270.15,69a.4.4,0,0,0,.38-.67c-1.55-1.67-5.21-5-10.13-5.49-5.93-.6-6.55,1.58-6.74,2.4-.27,1.2.55,3.47,4.45,3.73C261.6,69.25,265.64,68.12,270.15,69Z" transform="translate(-5.29 -4.66)"/><path class="cls-1" d="M272.93,69a.41.41,0,0,1-.4-.67c1-1.27,2.84-3.27,4.3-4,2.16-1,3.37-.32,3.8.61.59,1.29-.38,2.29-1.88,2.91C277.48,68.43,275,68.44,272.93,69Z" transform="translate(-5.29 -4.66)"/><path class="cls-1" d="M195.84,36.75a4.43,4.43,0,0,0-3.26-1.39h-8.82a4.55,4.55,0,0,0-4.26,2.82,5,5,0,0,0-.35,1.83V50.48a5,5,0,0,0,.35,1.78,4.57,4.57,0,0,0,4.26,2.86h2.91v2.44h-5.82A1.42,1.42,0,0,0,179.42,59v0a1.4,1.4,0,0,0,1.43,1.39h2a41.2,41.2,0,0,1-1.21,5.39,23.63,23.63,0,0,1-2.52,5.69,1.49,1.49,0,0,0,.48,1.91l0,0a1.47,1.47,0,0,0,1.13.21,1.62,1.62,0,0,0,.91-.69,30.46,30.46,0,0,0,2.74-6.26,40.25,40.25,0,0,0,1.39-6.08v-.22h.91V73.19a1.47,1.47,0,0,0,1.43,1.44h.09a1.44,1.44,0,0,0,1.43-1.44V60.42h.44a1.36,1.36,0,0,0,.08.39l4,12.26A1.49,1.49,0,0,0,196,74l0,0a1.43,1.43,0,0,0,1-1.78L193.1,60.42h2.34A1.4,1.4,0,0,0,196.88,59v0a1.42,1.42,0,0,0-1.44-1.43h-5.82V55.12h3a4.39,4.39,0,0,0,3.26-1.39,5.1,5.1,0,0,0,.95-1.47,4.3,4.3,0,0,0,.39-1.78V40a4.36,4.36,0,0,0-.39-1.83A6.24,6.24,0,0,0,195.84,36.75Zm-9.17,15.42h-2.91a1.57,1.57,0,0,1-1.17-.48,1.67,1.67,0,0,1-.48-1.21v-3.7h4.56Zm0-8.3h-4.56V40a1.77,1.77,0,0,1,.48-1.22,1.6,1.6,0,0,1,1.17-.48h2.91Zm7.56,6.61a1.53,1.53,0,0,1-.48,1.21,1.74,1.74,0,0,1-1.17.48h-3V46.78h4.61Zm0-6.61h-4.61V38.31h3a1.79,1.79,0,0,1,1.17.48,1.6,1.6,0,0,1,.48,1.22Z" transform="translate(-5.29 -4.66)"/><path class="cls-1" d="M216.16,35.58H199.61A1.47,1.47,0,0,0,198.18,37v.09a1.44,1.44,0,0,0,1.43,1.43h16.55a1.44,1.44,0,0,0,1.44-1.43V37A1.47,1.47,0,0,0,216.16,35.58Z" transform="translate(-5.29 -4.66)"/><path class="cls-1" d="M209.26,60.12a2.29,2.29,0,0,0-.48-.43,51.34,51.34,0,0,0,.91-7.87,1.39,1.39,0,0,0-1.39-1.47h-.08a1.4,1.4,0,0,0-1.48,1.34,31.9,31.9,0,0,1-2.48,12.21,17.79,17.79,0,0,1-2.95,4.47,26.33,26.33,0,0,1-3,2.91,1.46,1.46,0,0,0-.26,2l.09.09a1.25,1.25,0,0,0,1,.52,1.36,1.36,0,0,0,1.08-.31,31,31,0,0,0,3.39-3.25,21.37,21.37,0,0,0,3.3-5c.31-.7.61-1.39.87-2.13l6.86,10a1.49,1.49,0,0,0,1,.57,1.38,1.38,0,0,0,1.13-.26,1.44,1.44,0,0,0,.35-2Z" transform="translate(-5.29 -4.66)"/><path class="cls-1" d="M201.7,50a1.63,1.63,0,0,1,1.69-1.69h9a1.73,1.73,0,0,1,1.22.47A1.6,1.6,0,0,1,214,50v3.24h3V50a4.47,4.47,0,0,0-2.87-4.21,3.5,3.5,0,0,0-1.78-.39h-9a4.6,4.6,0,0,0-4.6,4.6v3.24h2.91Z" transform="translate(-5.29 -4.66)"/><path class="cls-1" d="M214,62.81a1.44,1.44,0,0,0,1.43,1.43h.09A1.42,1.42,0,0,0,217,62.81V57h-3Z" transform="translate(-5.29 -4.66)"/><path class="cls-1" d="M198.79,62.81a1.42,1.42,0,0,0,1.43,1.43h.05a1.44,1.44,0,0,0,1.43-1.43V57h-2.91Z" transform="translate(-5.29 -4.66)"/><rect class="cls-1" x="193.5" y="46.84" width="2.91" height="5.5"/><rect class="cls-1" x="208.75" y="46.84" width="2.95" height="5.5"/><path class="cls-1" d="M250.33,38.79H284a1.42,1.42,0,0,0,1.43-1.43v0A1.42,1.42,0,0,0,284,35.88H250.33a1.42,1.42,0,0,0-1.44,1.43v0A1.42,1.42,0,0,0,250.33,38.79Z" transform="translate(-5.29 -4.66)"/><path class="cls-1" d="M284.73,71.72H249.59a1.47,1.47,0,0,0-1.43,1.43v.09a1.46,1.46,0,0,0,1.43,1.39h35.14a1.44,1.44,0,0,0,1.43-1.39v-.09A1.44,1.44,0,0,0,284.73,71.72Z" transform="translate(-5.29 -4.66)"/><path class="cls-1" d="M254.06,47.74a2.35,2.35,0,0,1,.7-1.78,2.45,2.45,0,0,1,1.78-.74h21.28a2.47,2.47,0,0,1,1.79.74,2.52,2.52,0,0,1,.65,1.78v.19h3v-.19a5.29,5.29,0,0,0-.43-2.17A5.38,5.38,0,0,0,280,42.7a6,6,0,0,0-2.13-.43H256.54a5.45,5.45,0,0,0-2.09.43,5.38,5.38,0,0,0-2.91,2.87,6,6,0,0,0-.43,2.17v.19h2.95Z" transform="translate(-5.29 -4.66)"/><path class="cls-1" d="M280.26,54.9a2.57,2.57,0,0,1-.65,1.74,2.47,2.47,0,0,1-1.79.74H256.54a2.45,2.45,0,0,1-1.78-.74,2.4,2.4,0,0,1-.7-1.74v-.66h-2.95v.66a5.83,5.83,0,0,0,.43,2.09,5.27,5.27,0,0,0,2.91,2.86,4.67,4.67,0,0,0,2.09.44h21.28a5.09,5.09,0,0,0,2.13-.44A5.26,5.26,0,0,0,282.82,57a5.08,5.08,0,0,0,.43-2.09v-.66h-3Z" transform="translate(-5.29 -4.66)"/><rect class="cls-1" x="245.82" y="43.28" width="2.95" height="7.1"/><rect class="cls-1" x="274.97" y="43.28" width="3" height="7.1"/><path class="cls-1" d="M118.94,74.63a5.25,5.25,0,0,1-5.3-5.21v-8h-2.56A1.42,1.42,0,0,1,109.65,60V60a1.48,1.48,0,0,1,1.43-1.44h2.56V50.39a5.25,5.25,0,0,1,5.3-5.21h19.81A5.19,5.19,0,0,1,144,50.39v8.12h2.65A1.48,1.48,0,0,1,148.05,60V60a1.42,1.42,0,0,1-1.44,1.44H144v8a5.32,5.32,0,0,1-1.52,3.69,5.25,5.25,0,0,1-3.69,1.52Zm-2.21-35.32h27.45a1.41,1.41,0,0,1,1.39,1.44v.08a1.42,1.42,0,0,1-1.39,1.44H114.43a1.42,1.42,0,0,1-1.31-2l1.65-3.83a1.4,1.4,0,0,1,1.87-.73h0a1.46,1.46,0,0,1,.79,1.91Zm24.32,11.08a2.22,2.22,0,0,0-.65-1.61,2.3,2.3,0,0,0-1.65-.69H118.94a2.42,2.42,0,0,0-1.69.69,2.26,2.26,0,0,0-.65,1.61v8.12h24.45Zm-2.3,21.33a2.27,2.27,0,0,0,1.65-.7,2.2,2.2,0,0,0,.65-1.6v-8H116.6v8a2.24,2.24,0,0,0,.65,1.6,2.38,2.38,0,0,0,1.69.7Z" transform="translate(-5.29 -4.66)"/><circle class="cls-1" cx="123.56" cy="49.03" r="2.18"/><circle class="cls-1" cx="123.56" cy="61.8" r="2.18"/><path class="cls-1" d="M128.57,22.87V5.93a1.26,1.26,0,0,0-2.33-.63L118.8,15.41H121L113.52,5.3a1.26,1.26,0,0,0-2.33.63V22.87a1.25,1.25,0,0,0,2.5,0V5.93l-2.33.63,7.44,10.11a1.27,1.27,0,0,0,2.16,0l7.43-10.11-2.32-.63V22.87a1.25,1.25,0,0,0,2.5,0Z" transform="translate(-5.29 -4.66)"/><path class="cls-1" d="M150,22.33l-7.49-17a1.26,1.26,0,0,0-2.16,0l-7.73,16.94c-.66,1.45,1.49,2.72,2.16,1.26l7.73-16.94h-2.16l7.49,17c.65,1.47,2.8.2,2.16-1.26Z" transform="translate(-5.29 -4.66)"/><path class="cls-1" d="M137.18,18.06h8.39a1.25,1.25,0,0,0,0-2.5h-8.39a1.25,1.25,0,0,0,0,2.5Z" transform="translate(-5.29 -4.66)"/><path class="cls-1" d="M265.4,22.33l-7.49-17a1.26,1.26,0,0,0-2.16,0L248,22.24c-.66,1.45,1.49,2.72,2.16,1.26l7.73-16.94h-2.16l7.49,17c.65,1.47,2.8.2,2.16-1.26Z" transform="translate(-5.29 -4.66)"/><path class="cls-1" d="M252.54,18.06h8.39a1.25,1.25,0,0,0,0-2.5h-8.39a1.25,1.25,0,0,0,0,2.5Z" transform="translate(-5.29 -4.66)"/><path class="cls-1" d="M154.11,5.93V22.87a1.25,1.25,0,0,0,2.5,0V5.93a1.25,1.25,0,0,0-2.5,0Z" transform="translate(-5.29 -4.66)"/><path class="cls-1" d="M166.3,5,154.46,15.16c-1.23,1.05.55,2.81,1.76,1.77L168.07,6.77c1.22-1-.56-2.81-1.77-1.77Z" transform="translate(-5.29 -4.66)"/><path class="cls-1" d="M168.26,22.24l-7.58-10.49c-.93-1.29-3.1,0-2.16,1.27L166.1,23.5c.94,1.29,3.11,0,2.16-1.26Z" transform="translate(-5.29 -4.66)"/><path class="cls-1" d="M187.32,5.93V22.87a1.25,1.25,0,0,0,2.5,0V5.93a1.25,1.25,0,0,0-2.5,0Z" transform="translate(-5.29 -4.66)"/><path class="cls-1" d="M188.57,7.18H195a1.25,1.25,0,0,0,0-2.5h-6.44a1.25,1.25,0,0,0,0,2.5Z" transform="translate(-5.29 -4.66)"/><path class="cls-1" d="M188.57,16.4H195a1.25,1.25,0,0,0,0-2.5h-6.44a1.25,1.25,0,0,0,0,2.5Z" transform="translate(-5.29 -4.66)"/><path class="cls-1" d="M201.07,22.24l-5.38-7.72c-.91-1.31-3.08-.06-2.16,1.26l5.38,7.72c.91,1.31,3.08.06,2.16-1.26Z" transform="translate(-5.29 -4.66)"/><path class="cls-1" d="M195,7.18a3.36,3.36,0,0,1,0,6.72c-1.6.09-1.61,2.59,0,2.5a6,6,0,0,0,5.87-5.86A6,6,0,0,0,195,4.68c-1.6-.09-1.6,2.41,0,2.5Z" transform="translate(-5.29 -4.66)"/><path class="cls-1" d="M214.52,5.93V22.87a1.25,1.25,0,0,0,2.5,0V5.93a1.25,1.25,0,0,0-2.5,0Z" transform="translate(-5.29 -4.66)"/><path class="cls-1" d="M215.77,7.18h7.36a1.25,1.25,0,0,0,0-2.5h-7.36a1.25,1.25,0,0,0,0,2.5Z" transform="translate(-5.29 -4.66)"/><path class="cls-1" d="M215.77,15.29h7.36a1.25,1.25,0,0,0,0-2.5h-7.36a1.25,1.25,0,0,0,0,2.5Z" transform="translate(-5.29 -4.66)"/><path class="cls-1" d="M215.77,24.12h7.43a1.25,1.25,0,0,0,0-2.5h-7.43a1.25,1.25,0,0,0,0,2.5Z" transform="translate(-5.29 -4.66)"/><path class="cls-1" d="M233.38,15.65h10.29a1.25,1.25,0,0,0,0-2.5H233.38a1.25,1.25,0,0,0,0,2.5Z" transform="translate(-5.29 -4.66)"/><path class="cls-1" d="M243.67,21.62a20.29,20.29,0,0,1-5.17-.19c-3.39-.93-3.87-4.07-3.87-7s.45-6.09,3.87-7a20.31,20.31,0,0,1,5.17-.19,1.25,1.25,0,0,0,0-2.5c-2.92,0-5.9-.31-8.39,1.53-2.77,2.05-3.15,5-3.15,8.19s.38,6.14,3.15,8.19c2.49,1.84,5.47,1.53,8.39,1.53a1.25,1.25,0,0,0,0-2.5Z" transform="translate(-5.29 -4.66)"/><path class="cls-1" d="M172.06,15.65h10.29a1.25,1.25,0,0,0,0-2.5H172.06a1.25,1.25,0,0,0,0,2.5Z" transform="translate(-5.29 -4.66)"/><path class="cls-1" d="M182.35,21.62a20.46,20.46,0,0,1-5.19-.19c-3.39-.93-3.85-4.08-3.85-7s.43-6.1,3.85-7a20,20,0,0,1,5.19-.19,1.25,1.25,0,0,0,0-2.5c-2.92,0-5.91-.32-8.4,1.52-2.77,2.05-3.14,5-3.14,8.2s.37,6.14,3.14,8.2c2.49,1.84,5.48,1.52,8.4,1.52a1.25,1.25,0,0,0,0-2.5Z" transform="translate(-5.29 -4.66)"/><path class="cls-1" d="M282.12,5.93V22.87l2.13-.89L270.86,5.05c-.7-.89-2.14-.12-2.14.88V22.87a1.25,1.25,0,0,0,2.5,0V5.93l-2.13.88,13.4,16.94c.7.89,2.13.12,2.13-.88V5.93a1.25,1.25,0,0,0-2.5,0Z" transform="translate(-5.29 -4.66)"/><path class="cls-1" d="M223.2,15.29a3.17,3.17,0,0,1,0,6.33c-1.6.08-1.61,2.59,0,2.5a5.78,5.78,0,0,0,5.67-5.67,5.76,5.76,0,0,0-5.67-5.66c-1.61-.09-1.6,2.41,0,2.5Z" transform="translate(-5.29 -4.66)"/><path class="cls-1" d="M223.09,7.18a2.81,2.81,0,0,1,0,5.61c-1.6.08-1.61,2.58,0,2.5a5.4,5.4,0,0,0,5.3-5.31,5.4,5.4,0,0,0-5.3-5.3c-1.61-.09-1.61,2.41,0,2.5Z" transform="translate(-5.29 -4.66)"/></svg>